<?xml version="1.0" standalone="no"?>
<!DOCTYPE svg PUBLIC "-//W3C//DTD SVG 20010904//EN"
 "http://www.w3.org/TR/2001/REC-SVG-20010904/DTD/svg10.dtd">
<svg version="1.0" xmlns="http://www.w3.org/2000/svg"
 width="2000.000000pt" height="2000.000000pt" viewBox="0 0 2000.000000 2000.000000"
 preserveAspectRatio="xMidYMid meet">
<metadata>
Created by potrace 1.11, written by Peter Selinger 2001-2013
</metadata>
<g transform="translate(0.000000,2000.000000) scale(0.100000,-0.100000)"
fill="#000000" stroke="none">
<path d="M4978 18590 c-17 -30 -36 -64 -43 -75 -12 -21 -70 -120 -85 -145 -5
-8 -69 -118 -141 -245 -201 -351 -280 -488 -299 -515 -10 -14 -18 -28 -19 -33
0 -4 -7 -17 -15 -30 -14 -23 -110 -189 -154 -267 -14 -25 -42 -74 -64 -109
-21 -34 -38 -65 -38 -67 0 -3 -69 -122 -90 -154 -6 -8 -13 -22 -17 -30 -4 -8
-33 -59 -65 -113 -32 -55 -58 -101 -58 -103 0 -2 -25 -44 -55 -95 -30 -50 -55
-93 -55 -94 0 -1 -30 -54 -66 -116 -85 -146 -91 -156 -153 -264 -28 -49 -56
-97 -61 -105 -6 -8 -16 -26 -22 -40 -7 -14 -27 -48 -45 -77 -18 -29 -33 -54
-33 -56 0 -4 -55 -100 -125 -217 -9 -14 -37 -62 -63 -108 -26 -46 -52 -91 -57
-100 -6 -9 -30 -51 -53 -92 -24 -41 -47 -82 -52 -90 -42 -65 -370 -642 -370
-650 0 -5 -4 -10 -8 -10 -4 0 -20 -24 -35 -52 -15 -29 -32 -60 -37 -68 -5 -8
-24 -40 -41 -70 -18 -30 -73 -127 -124 -215 -51 -88 -101 -176 -112 -195 -11
-19 -121 -208 -243 -420 -236 -408 -414 -717 -499 -865 -28 -49 -55 -97 -61
-105 -8 -13 -35 -59 -130 -225 -25 -45 -109 -190 -125 -217 -5 -9 -26 -45 -46
-80 -20 -35 -45 -79 -56 -98 -11 -19 -70 -120 -131 -225 -167 -288 -661 -1144
-690 -1195 -13 -25 -28 -49 -32 -55 -5 -5 -19 -30 -32 -55 -14 -25 -34 -61
-45 -80 -11 -19 -64 -110 -117 -202 l-97 -166 133 -231 c73 -127 141 -246 152
-264 10 -17 69 -120 131 -227 62 -107 123 -214 136 -236 93 -162 317 -549 331
-572 9 -15 25 -43 35 -62 11 -19 49 -86 86 -149 37 -62 67 -115 67 -117 0 -2
18 -33 40 -69 22 -36 40 -68 40 -71 0 -3 8 -18 19 -32 10 -15 29 -45 41 -67
69 -125 126 -220 132 -223 5 -2 8 -8 8 -14 0 -5 32 -64 71 -131 40 -67 82
-140 94 -162 23 -43 252 -439 450 -780 120 -207 413 -715 453 -787 12 -20 32
-55 46 -77 15 -22 26 -42 26 -45 0 -2 17 -33 38 -67 21 -35 52 -89 69 -119 17
-30 69 -120 115 -200 47 -80 96 -165 110 -190 14 -25 89 -155 168 -290 78
-135 152 -263 165 -285 12 -22 57 -101 100 -175 43 -74 84 -145 89 -157 6 -13
14 -23 19 -23 4 0 7 -4 7 -9 0 -5 23 -49 51 -98 28 -48 61 -104 71 -123 47
-82 71 -123 154 -265 48 -82 101 -175 117 -205 17 -30 45 -79 64 -108 18 -29
33 -54 33 -57 0 -2 13 -26 29 -53 15 -26 39 -68 53 -93 14 -24 123 -213 243
-419 119 -206 227 -393 240 -415 12 -22 73 -128 135 -235 62 -107 127 -220
143 -250 16 -30 36 -62 43 -71 8 -8 14 -18 14 -21 0 -3 43 -79 95 -169 52 -89
95 -165 95 -168 0 -3 11 -19 24 -36 l23 -29 4984 -1 4983 0 24 35 c23 35 322
550 322 556 0 2 19 36 43 76 24 40 67 114 96 163 28 50 56 97 61 105 8 14 35
60 99 174 12 21 62 107 111 190 48 83 97 167 108 186 59 106 285 497 292 505
4 6 22 37 40 70 43 77 60 107 103 180 41 71 51 88 185 321 57 98 107 186 112
194 39 63 130 223 130 226 0 2 11 21 23 42 13 20 77 129 142 242 65 113 168
291 228 395 61 105 120 208 132 230 12 22 52 91 89 153 36 62 77 132 90 155
28 51 131 228 324 562 129 223 174 301 241 417 10 18 59 103 108 188 278 482
334 578 413 715 47 83 117 204 155 270 37 66 75 131 84 145 13 21 219 378 283
490 35 61 505 873 526 910 12 19 27 46 35 60 7 14 46 81 86 150 96 163 116
198 139 240 10 19 54 95 96 168 l77 133 -94 162 c-143 246 -369 639 -385 667
-7 14 -21 39 -31 55 -21 35 -427 737 -450 778 -9 16 -20 36 -26 45 -5 9 -79
136 -163 282 -84 146 -158 272 -163 280 -8 15 -55 96 -89 155 -9 17 -42 74
-73 128 -32 54 -57 101 -57 104 0 4 -6 14 -14 22 -7 9 -27 41 -44 71 -25 46
-188 329 -597 1035 -28 50 -63 110 -77 135 -14 25 -58 101 -98 170 -40 69 -81
140 -91 158 -66 115 -108 187 -204 352 -59 102 -117 203 -130 225 -34 61 -316
550 -416 721 -48 83 -96 166 -107 185 -10 19 -61 106 -112 194 -51 88 -103
179 -116 202 -13 23 -62 108 -109 188 -47 81 -85 151 -85 156 0 5 -4 9 -10 9
-5 0 -10 4 -10 10 0 5 -40 78 -89 162 -49 84 -189 326 -311 538 -122 212 -231
401 -242 420 -24 41 -50 87 -76 133 -106 185 -258 448 -273 469 -11 15 -19 29
-19 32 0 2 -45 81 -100 175 -55 94 -100 174 -100 178 0 5 -7 17 -16 28 -14 19
-47 20 -5005 20 l-4990 0 -31 -55z"/>
</g>
</svg>
